#!OML:ASF C:\ViconDB\ViconDB\414\Spring2016\042216\male.ASF
:FULLY-SPECIFIED
:DEGREES
569
root 47.0091 17.6347 12.6209 178.412 87.4606 175.835
lowerback -4.10035 -1.38813 3.23417
upperback -1.32127 -1.95454 -0.578377
thorax 0.810722 -0.973372 -2.49741
lowerneck -1.51335 10.6845 1.55734
upperneck -1.19582 14.3391 -8.05642
head 0.627321 7.18595 -2.5703
rclavicle 1.76421e-015 -7.35503e-015
rhumerus -35.4701 0.461031 -94.4336
rradius 32.8173
rwrist 24.3704
rhand 13.905 -18.9947
rfingers 7.12502
rthumb 38.8199 -44.566
lclavicle 1.76421e-015 -7.35503e-015
lhumerus -38.6527 18.0876 82.6978
lradius 33.1416
lwrist -14.5607
lhand -6.41973 14.9179
lfingers 7.12502
lthumb 19.4288 43.9672
rfemur -8.02087 10.1044 22.7167
rtibia 28.5903
rfoot -21.106 -9.62845
rtoes -0.818779
lfemur -7.61326 -4.47598 -22.2324
ltibia 30.9455
lfoot -23.28 19.3584
ltoes -20.4343
570
root 47.0232 17.6376 12.6197 178.889 87.3384 176.304
lowerback -4.62132 -1.48216 2.96334
upperback -0.943342 -2.09643 -0.407396
thorax 1.49739 -1.02916 -2.19999
lowerneck -1.92601 10.7652 1.3492
upperneck -1.3087 14.4537 -8.22618
head 0.665017 7.24011 -2.56504
rclavicle 1.01023e-014 -4.87022e-015
rhumerus -35.2143 -3.57105 -92.4878
rradius 32.5411
rwrist 28.032
rhand 14.934 -18.4181
rfingers 7.12502
rthumb 39.7895 -43.7073
lclavicle 1.01023e-014 -4.87022e-015
lhumerus -37.6582 17.5316 83.9164
lradius 33.6414
lwrist -13.91
lhand -6.56368 14.9937
lfingers 7.12502
lthumb 19.2904 44.0569
rfemur -7.99809 9.84528 22.7153
rtibia 28.6215
rfoot -21.124 -9.45334
rtoes -1.0908
lfemur -7.60734 -4.37474 -22.1872
ltibia 30.9229
lfoot -23.2548 19.1073
ltoes -20.4591
571
root 47.0355 17.6404 12.6148 180.147 87.2587 177.568
lowerback -4.61266 -1.47831 3.02829
upperback -0.939093 -2.09439 -0.39978
thorax 1.49496 -1.0279 -2.22824
lowerneck -1.98981 10.7589 1.27896
upperneck -1.23061 14.4513 -8.1757
head 0.690702 7.23594 -2.53144
rclavicle -1.18106e-014 1.03368e-014
rhumerus -35.3153 -6.62138 -91.03
rradius 31.5577
rwrist 30.7552
rhand 14.9678 -17.4986
rfingers 7.12502
rthumb 39.8213 -42.7783
lclavicle -1.18106e-014 1.03368e-014
lhumerus -37.3095 16.7159 84.7299
lradius 34.0555
lwrist -13.4383
lhand -6.45972 14.4759
lfingers 7.12502
lthumb 19.3904 43.5291
rfemur -7.96817 9.63875 22.7516
rtibia 28.6351
rfoot -21.0841 -9.34814
rtoes -1.21774
lfemur -7.602 -4.17518 -22.1042
ltibia 30.9188
lfoot -23.2694 18.7704
ltoes -20.5725
572
root 47.0471 17.6377 12.6136 181.157 87.1509 178.539
lowerback -4.68209 -1.47208 3.03826
upperback -0.939812 -2.08834 -0.412723
thorax 1.53254 -1.02408 -2.24902
lowerneck -2.00825 10.7686 1.33165
upperneck -1.17207 14.4669 -8.17685
head 0.717415 7.24135 -2.5365
rclavicle 1.10263e-015 -3.37934e-015
rhumerus -35.5049 -7.82567 -90.3035
rradius 30.772
rwrist 31.7043
rhand 14.245 -17.224
rfingers 7.12502
rthumb 39.1405 -42.7036
lclavicle 1.10263e-015 -3.37934e-015
lhumerus -37.0316 15.4019 85.7947
lradius 34.9123
lwrist -12.5325
lhand -6.3517 15.0108
lfingers 7.12502
lthumb 19.4942 44.0535
rfemur -7.83442 11.0567 22.9742
rtibia 28.5898
rfoot -21.2764 -10.8448
rtoes -1.05428
lfemur -7.64066 -4.08784 -22.0204
ltibia 30.9781
lfoot -23.5324 18.493
ltoes -20.4758
573
root 47.061 17.6382 12.6121 182.74 87.0481 180.138
lowerback -4.69829 -1.47998 3.03237
upperback -0.946951 -2.09941 -0.376931
thorax 1.53514 -1.02959 -2.20989
lowerneck -1.98289 10.7917 1.3821
upperneck -1.12453 14.5006 -8.20344
head 0.736191 7.25728 -2.55173
rclavicle 3.91916e-014 1.49089e-015
rhumerus -35.7604 -8.93718 -89.521
rradius 30.2647
rwrist 32.0693
rhand 14.5505 -17.293
rfingers 7.12502
rthumb 39.4283 -42.689
lclavicle 3.91916e-014 1.49089e-015
lhumerus -36.7035 14.2481 86.7036
lradius 35.4633
lwrist -11.7905
lhand -5.90818 14.555
lfingers 7.12502
lthumb 19.9206 43.554
rfemur -7.72985 11.7112 23.1473
rtibia 28.5755
rfoot -21.3581 -11.504
rtoes -0.788243
lfemur -7.58216 -3.96569 -21.893
ltibia 30.994
lfoot -23.7961 18.1714
ltoes -20.3256
574
root 47.0734 17.6295 12.6103 183.51 86.971 180.919
lowerback -4.71387 -1.47549 3.01078
upperback -0.954626 -2.09269 -0.369497
thorax 1.53742 -1.02629 -2.19013
lowerneck -1.98322 10.7986 1.39566
upperneck -1.08794 14.5103 -8.15974
head 0.745678 7.26084 -2.53854
rclavicle 2.04624e-014 9.93923e-017
rhumerus -35.9934 -10.1939 -88.718
rradius 29.8422
rwrist 32.1916
rhand 15.0158 -17.043
rfingers 7.12502
rthumb 39.8665 -42.3092
lclavicle 2.04624e-014 9.93923e-017
lhumerus -36.4445 13.1667 87.5596
lradius 36.0574
lwrist -11.1517
lhand -6.08919 14.462
lfingers 7.12502
lthumb 19.7466 43.479
rfemur -7.61673 11.6566 23.2401
rtibia 28.5528
rfoot -21.3915 -11.6548
rtoes -0.883609
lfemur -7.55033 -3.93091 -21.815
ltibia 31.0196
lfoot -23.971 17.9662
ltoes -20.241
575
root 47.0866 17.636 12.6044 185.201 86.8989 182.635
lowerback -4.73188 -1.41318 3.18778
upperback -0.938238 -2.01922 -0.377441
thorax 1.56221 -0.988282 -2.29431
lowerneck -2.0011 10.748 1.33101
upperneck -1.05797 14.4447 -8.10656
head 0.745345 7.2273 -2.51162
rclavicle -1.3522e-014 -2.43511e-015
rhumerus -36.2202 -11.3663 -87.9169
rradius 29.5332
rwrist 31.9384
rhand 14.8148 -16.7899
rfingers 7.12502
rthumb 39.6773 -42.1124
lclavicle -1.3522e-014 -2.43511e-015
lhumerus -36.1961 12.0016 88.451
lradius 36.7542
lwrist -10.4974
lhand -6.59435 14.5044
lfingers 7.12502
lthumb 19.2609 43.5706
rfemur -7.54078 11.8013 23.3456
rtibia 28.5259
rfoot -21.5252 -11.783
rtoes -0.486495
lfemur -7.50414 -3.87316 -21.7006
ltibia 31.0513
lfoot -22.8495 18.0563
ltoes -22.3526
